<mxfile host="app.diagrams.net" modified="2020-10-20T21:45:56.300Z" agent="5.0 (Windows NT 10.0; Win64; x64) AppleWebKit/537.36 (KHTML, like Gecko) Chrome/86.0.4240.75 Safari/537.36" etag="g49_IxXT-X76RayFn4aS" version="13.8.1" type="github">
  <diagram name="Page-1" id="2cc2dc42-3aac-f2a9-1cec-7a8b7cbee084">
    <mxGraphModel dx="2522" dy="1587" grid="1" gridSize="10" guides="1" tooltips="1" connect="1" arrows="1" fold="1" page="1" pageScale="1" pageWidth="1100" pageHeight="850" background="#ffffff" math="0" shadow="0">
      <root>
        <mxCell id="0" />
        <mxCell id="1" parent="0" />
        <mxCell id="7026571954dc6520-1" value="" style="strokeWidth=1;shadow=0;dashed=0;align=center;html=1;shape=mxgraph.mockup.containers.browserWindow;rSize=0;strokeColor=#666666;mainText=,;recursiveResize=0;rounded=0;labelBackgroundColor=none;fontFamily=Verdana;fontSize=12" parent="1" vertex="1">
          <mxGeometry x="60" y="-10" width="1050" height="820" as="geometry" />
        </mxCell>
        <mxCell id="7026571954dc6520-2" value="Page 1" style="strokeWidth=1;shadow=0;dashed=0;align=center;html=1;shape=mxgraph.mockup.containers.anchor;fontSize=17;fontColor=#666666;align=left;" parent="7026571954dc6520-1" vertex="1">
          <mxGeometry x="60" y="12" width="110" height="26" as="geometry" />
        </mxCell>
        <mxCell id="7026571954dc6520-3" value="drikstore.com" style="strokeWidth=1;shadow=0;dashed=0;align=center;html=1;shape=mxgraph.mockup.containers.anchor;rSize=0;fontSize=17;fontColor=#666666;align=left;" parent="7026571954dc6520-1" vertex="1">
          <mxGeometry x="130" y="60" width="250" height="26" as="geometry" />
        </mxCell>
        <mxCell id="7026571954dc6520-14" value="Buscar Productos" style="strokeWidth=1;shadow=0;dashed=0;align=center;html=1;shape=mxgraph.mockup.forms.searchBox;strokeColor=#999999;mainText=;strokeColor2=#008cff;fontColor=#666666;fontSize=17;align=left;spacingLeft=3;rounded=0;labelBackgroundColor=none;" parent="7026571954dc6520-1" vertex="1">
          <mxGeometry x="330" y="160" width="400" height="30" as="geometry" />
        </mxCell>
        <mxCell id="O0nchLs7935RERdm7ECE-1" value="" style="strokeWidth=1;shadow=0;dashed=0;align=center;html=1;shape=mxgraph.mockup.text.alphanumeric;linkText=;html=1;fontStyle=4;fontSize=17;fontColor=#0000ff;" vertex="1" parent="7026571954dc6520-1">
          <mxGeometry x="10" y="115" width="290" height="135" as="geometry" />
        </mxCell>
        <mxCell id="O0nchLs7935RERdm7ECE-2" value="" style="strokeWidth=1;shadow=0;dashed=0;align=center;html=1;shape=mxgraph.mockup.text.alphanumeric;linkText=;html=1;fontStyle=4;fontSize=17;fontColor=#0000ff;" vertex="1" parent="7026571954dc6520-1">
          <mxGeometry x="20" y="210" width="290" height="50" as="geometry" />
        </mxCell>
        <mxCell id="O0nchLs7935RERdm7ECE-3" value="&lt;b style=&quot;font-size: 43px&quot;&gt;Drinks&lt;br&gt;Store&lt;/b&gt;" style="strokeWidth=1;shadow=0;dashed=0;align=center;html=1;shape=mxgraph.mockup.text.alphanumeric;linkText=;html=1;fontStyle=4;fontSize=17;" vertex="1" parent="7026571954dc6520-1">
          <mxGeometry x="-90" y="150" width="420" height="50" as="geometry" />
        </mxCell>
        <mxCell id="O0nchLs7935RERdm7ECE-5" value="" style="strokeWidth=1;shadow=0;dashed=0;align=center;html=1;shape=mxgraph.mockup.text.alphanumeric;linkText=;html=1;fontStyle=4;fontSize=17;fontColor=#0000ff;" vertex="1" parent="7026571954dc6520-1">
          <mxGeometry x="555" y="230" width="450" height="50" as="geometry" />
        </mxCell>
        <mxCell id="O0nchLs7935RERdm7ECE-6" value="" style="strokeWidth=1;shadow=0;dashed=0;align=center;html=1;shape=mxgraph.mockup.forms.rrect;rSize=0;strokeColor=#999999;fontColor=#000000;" vertex="1" parent="7026571954dc6520-1">
          <mxGeometry x="10" y="280" width="1030" height="30" as="geometry" />
        </mxCell>
        <mxCell id="O0nchLs7935RERdm7ECE-7" value="Vinos" style="strokeColor=inherit;fillColor=inherit;gradientColor=inherit;strokeWidth=1;shadow=0;dashed=0;align=center;html=1;shape=mxgraph.mockup.forms.rrect;rSize=0;fontSize=17;fontColor=#666666;" vertex="1" parent="O0nchLs7935RERdm7ECE-6">
          <mxGeometry width="171.66666666666669" height="30" as="geometry" />
        </mxCell>
        <mxCell id="O0nchLs7935RERdm7ECE-8" value="Spirits" style="strokeColor=inherit;fillColor=inherit;gradientColor=inherit;strokeWidth=1;shadow=0;dashed=0;align=center;html=1;shape=mxgraph.mockup.forms.rrect;rSize=0;fontSize=17;fontColor=#666666;" vertex="1" parent="O0nchLs7935RERdm7ECE-6">
          <mxGeometry x="171.66666666666669" width="171.66666666666669" height="30" as="geometry" />
        </mxCell>
        <mxCell id="O0nchLs7935RERdm7ECE-9" value="Whiskies" style="strokeColor=inherit;fillColor=inherit;gradientColor=inherit;strokeWidth=1;shadow=0;dashed=0;align=center;html=1;shape=mxgraph.mockup.forms.rrect;rSize=0;fontSize=17;fontColor=#666666;" vertex="1" parent="O0nchLs7935RERdm7ECE-6">
          <mxGeometry x="343.33333333333337" width="171.66666666666669" height="30" as="geometry" />
        </mxCell>
        <mxCell id="O0nchLs7935RERdm7ECE-10" value="Combos" style="strokeColor=inherit;fillColor=inherit;gradientColor=inherit;strokeWidth=1;shadow=0;dashed=0;align=center;html=1;shape=mxgraph.mockup.forms.rrect;rSize=0;fontSize=17;fontColor=#666666;" vertex="1" parent="O0nchLs7935RERdm7ECE-6">
          <mxGeometry x="515" width="171.66666666666669" height="30" as="geometry" />
        </mxCell>
        <mxCell id="O0nchLs7935RERdm7ECE-11" value="Promociones" style="strokeColor=inherit;fillColor=inherit;gradientColor=inherit;strokeWidth=1;shadow=0;dashed=0;align=center;html=1;shape=mxgraph.mockup.forms.rrect;rSize=0;fontSize=17;fontColor=#666666;" vertex="1" parent="O0nchLs7935RERdm7ECE-6">
          <mxGeometry x="686.6666666666667" width="171.66666666666669" height="30" as="geometry" />
        </mxCell>
        <mxCell id="O0nchLs7935RERdm7ECE-12" value="Ayuda" style="strokeColor=inherit;fillColor=inherit;gradientColor=inherit;strokeWidth=1;shadow=0;dashed=0;align=center;html=1;shape=mxgraph.mockup.forms.rrect;rSize=0;fontSize=17;fontColor=#666666;" vertex="1" parent="O0nchLs7935RERdm7ECE-6">
          <mxGeometry x="858.3333333333335" width="171.66666666666669" height="30" as="geometry" />
        </mxCell>
        <mxCell id="O0nchLs7935RERdm7ECE-13" value="" style="verticalLabelPosition=bottom;shadow=0;dashed=0;align=center;html=1;verticalAlign=top;strokeWidth=1;shape=mxgraph.mockup.misc.shoppingCart;strokeColor=#999999;fontColor=#000000;" vertex="1" parent="7026571954dc6520-1">
          <mxGeometry x="810" y="230" width="25" height="30" as="geometry" />
        </mxCell>
        <mxCell id="O0nchLs7935RERdm7ECE-14" value="" style="shape=actor;whiteSpace=wrap;html=1;fontColor=#000000;" vertex="1" parent="7026571954dc6520-1">
          <mxGeometry x="810" y="190" width="20" height="20" as="geometry" />
        </mxCell>
        <mxCell id="O0nchLs7935RERdm7ECE-15" value="" style="shape=actor;whiteSpace=wrap;html=1;fontColor=#000000;" vertex="1" parent="7026571954dc6520-1">
          <mxGeometry x="810" y="150" width="20" height="20" as="geometry" />
        </mxCell>
        <mxCell id="O0nchLs7935RERdm7ECE-16" value="Inicia Sesion&lt;br&gt;&lt;br&gt;Registrate&lt;br&gt;" style="strokeWidth=1;shadow=0;dashed=0;align=center;html=1;shape=mxgraph.mockup.text.bulletedList;textColor=#666666;mainText=,,,,;textSize=17;bulletStyle=none;strokeColor=none;fillColor=none;align=left;verticalAlign=top;fontSize=17;fontColor=#666666;" vertex="1" parent="7026571954dc6520-1">
          <mxGeometry x="850" y="145" width="150" height="135" as="geometry" />
        </mxCell>
        <mxCell id="7026571954dc6520-18" value="" style="strokeWidth=1;shadow=0;dashed=0;align=center;html=1;shape=mxgraph.mockup.buttons.button;strokeColor=#666666;mainText=;buttonStyle=round;fontSize=17;fontStyle=0;fillColor=none;whiteSpace=wrap;rounded=0;labelBackgroundColor=none;" parent="1" vertex="1">
          <mxGeometry x="1950" y="540" width="190" height="30" as="geometry" />
        </mxCell>
      </root>
    </mxGraphModel>
  </diagram>
</mxfile>
